<?xml version="1.0" encoding="UTF-8" standalone="no"?>
<!-- Created with Inkscape (http://www.inkscape.org/) -->

<svg
   xmlns:dc="http://purl.org/dc/elements/1.1/"
   xmlns:cc="http://creativecommons.org/ns#"
   xmlns:rdf="http://www.w3.org/1999/02/22-rdf-syntax-ns#"
   xmlns:svg="http://www.w3.org/2000/svg"
   xmlns="http://www.w3.org/2000/svg"
   xmlns:sodipodi="http://sodipodi.sourceforge.net/DTD/sodipodi-0.dtd"
   xmlns:inkscape="http://www.inkscape.org/namespaces/inkscape"
   width="2.0221071in"
   height="3.6888638in"
   viewBox="0 0 181.98964 331.99774"
   id="svg2"
   version="1.1"
   inkscape:version="0.91 r13725"
   sodipodi:docname="logo.svg">
  <defs
     id="defs4" />
  <sodipodi:namedview
     id="base"
     pagecolor="#ffffff"
     bordercolor="#666666"
     borderopacity="1.0"
     inkscape:pageopacity="0.0"
     inkscape:pageshadow="2"
     inkscape:zoom="2.0787014"
     inkscape:cx="27.223469"
     inkscape:cy="-85.838378"
     inkscape:document-units="px"
     inkscape:current-layer="layer1"
     showgrid="false"
     units="in"
     fit-margin-top="0"
     fit-margin-left="0"
     fit-margin-right="0"
     fit-margin-bottom="0"
     inkscape:window-width="2560"
     inkscape:window-height="1417"
     inkscape:window-x="1672"
     inkscape:window-y="-8"
     inkscape:window-maximized="1" />
  <metadata
     id="metadata7">
    <rdf:RDF>
      <cc:Work
         rdf:about="">
        <dc:format>image/svg+xml</dc:format>
        <dc:type
           rdf:resource="http://purl.org/dc/dcmitype/StillImage" />
        <dc:title></dc:title>
      </cc:Work>
    </rdf:RDF>
  </metadata>
  <g
     inkscape:label="Layer 1"
     inkscape:groupmode="layer"
     id="layer1"
     transform="translate(-308.8177,-344.20838)">
    <path
       style="fill:#ff73c1;fill-opacity:1;fill-rule:evenodd;stroke:#98529d;stroke-width:5;stroke-linecap:butt;stroke-linejoin:miter;stroke-miterlimit:4;stroke-dasharray:none;stroke-opacity:1"
       d="m 334.59063,544.09324 c 0,29.66146 35.11044,25.07808 35.11044,48.70903 0,23.63096 -17.73206,25.18481 -37.23239,25.18481 -19.50033,0 -20.86147,19.70333 -20.86147,27.30024 0,7.59691 -2.73726,28.41879 8.90363,28.41879 11.64089,0 52.84061,-3.61295 79.30168,-3.62101 26.46107,-0.008 67.66079,3.57261 79.30168,3.57261 11.64089,0 8.90363,-20.82188 8.90363,-28.41879 0,-7.59691 -1.36114,-27.30024 -20.86147,-27.30024 -19.50033,0 -37.23239,-1.55385 -37.23239,-25.18481 0,-23.63095 35.11044,-19.04757 35.11044,-48.70903 0,-29.66146 -16.79248,-197.36066 -65.22189,-197.33646 -48.42941,0.0242 -65.22189,167.7234 -65.22189,197.38486 z"
       id="path4166-3"
       inkscape:connector-curvature="0"
       sodipodi:nodetypes="zzzzzzzzzzzzz" />
  </g>
</svg>
